<svg version="1.1" viewBox="0 0 240 240" xmlns="http://www.w3.org/2000/svg">
  <rect width="240" height="240" rx="60" ry="60" fill="#f2f2f2" stroke-linecap="round" stroke-width=".4"/>
  <path d="m204 120h-44.2c-.909 20.7-17.9 37-38.6 37-20.7-.001-37.7-16.3-38.6-37h-44.2c.0828 3.05.377 6.04.75 9.02l-23.3 18.3c-2.1 1.66-2.76 4.64-1.33 7.07l22.1 38.2c1.33 2.43 4.31 3.32 6.74 2.43l27.5-11.2c5.75 4.42 11.7 8.18 18.7 10.9l4.09 29.3c.442 2.65 2.76 4.64 5.53 4.64h44.2c2.76 0 5.08-1.99 5.53-4.64l4.09-29.3c6.96-2.87 12.9-6.52 18.7-10.9l27.5 11.2c2.43.884 5.41-.001 6.74-2.43l22.1-38.2c1.33-2.43.773-5.42-1.33-7.07l-23.3-18.3c.373-2.98.667-5.97.75-9.02z" fill="#ccc"/>
  <path d="m99.3 8.16c-2.76 0-5.08 1.99-5.53 4.64l-4.09 29.3c-6.96 2.76-12.9 6.52-18.7 10.8l-27.5-11.1c-2.43-.995-5.41 3e-4-6.74 2.43l-22.1 38.2c-1.44 2.43-.774 5.42 1.33 7.07l23.3 18c-.442 3.76-.773 7.4-.773 11.1 0 .569.0081 1.14.0234 1.7h44.2c-.0248-.567-.0372-1.13-.0371-1.7 5e-4-21.4 17.3-38.7 38.7-38.7 21.4 5e-4 38.7 17.3 38.7 38.7 0 .567-.013 1.13-.038 1.7h44.2c.015-.564.023-1.13.023-1.7 0-3.65-.331-7.29-.773-11.1l23.3-18c2.1-1.66 2.65-4.64 1.33-7.07l-22.1-38.2c-1.33-2.43-4.31-3.43-6.74-2.43l-27.5 11.1c-5.75-4.31-11.7-8.07-18.7-10.8l-4.09-29.3c-.442-2.65-2.76-4.64-5.53-4.64z" fill="#4d4d4d"/>
  <path transform="matrix(16.1 0 0 16.1 106 -29.2)" d="m-4.13 14.6c.39 0 .756-.144 1-.426v.378h.888v-3.23h-.936v1.6c0 .594-.312.87-.744.87-.414 0-.654-.24-.654-.78v-1.69h-.936v1.82c0 .996.57 1.45 1.38 1.45zm4.08 0c.288 0 .57-.066.762-.204l-.252-.66c-.102.078-.24.12-.378.12-.252 0-.402-.15-.402-.426v-1.39h.804v-.72h-.804v-.714h-.936v.714h-.498v.72h.498v1.4c0 .768.444 1.16 1.21 1.16zm1.29-.048h.936v-3.23h-.936zm.468-3.68c.354 0 .588-.228.588-.54 0-.288-.24-.504-.588-.504-.342 0-.582.228-.582.522s.24.522.582.522zm1.34 3.68h.936v-4.45h-.936zm2.89.048c.966 0 1.52-.426 1.52-1.03 0-1.27-1.95-.738-1.95-1.29 0-.168.18-.3.6-.3.294 0 .612.06.93.24l.312-.666c-.306-.18-.798-.282-1.24-.282-.942 0-1.49.432-1.49 1.04 0 .786.726.894 1.3.972.36.054.654.102.654.306 0 .18-.162.294-.594.294-.396 0-.834-.126-1.12-.312l-.312.672c.3.198.852.348 1.4.348z" fill="#333" stroke-width=".4" aria-label="utils"/>
</svg>
